<?xml version="1.0" encoding="utf-8"?>
<!-- Generator: Adobe Illustrator 19.0.0, SVG Export Plug-In . SVG Version: 6.00 Build 0)  -->
<svg version="1.1" id="Layer_1" xmlns="http://www.w3.org/2000/svg" xmlns:xlink="http://www.w3.org/1999/xlink" x="0px" y="0px"
	 viewBox="0 0 337.9 195" style="enable-background:new 0 0 337.9 195;" xml:space="preserve">
<style type="text/css">
	.st0{clip-path:url(#XMLID_86_);fill:#FFFFFF;}
	.st1{clip-path:url(#XMLID_86_);fill:#006694;}
	.st2{clip-path:url(#XMLID_86_);fill-rule:evenodd;clip-rule:evenodd;fill:#FFDD00;}
	.st3{clip-path:url(#XMLID_86_);fill-rule:evenodd;clip-rule:evenodd;fill:#006694;}
	.st4{clip-path:url(#XMLID_86_);fill-rule:evenodd;clip-rule:evenodd;fill:#00753E;}
	.st5{clip-path:url(#XMLID_86_);fill:#00753E;}
	.st6{clip-path:url(#XMLID_86_);fill:#FFDD00;}
</style>
<g id="XMLID_70_">
	<defs>
		<rect id="XMLID_1_" x="0" y="0" width="337.9" height="195"/>
	</defs>
	<clipPath id="XMLID_86_">
		<use xlink:href="#XMLID_1_"  style="overflow:visible;"/>
	</clipPath>
	<path id="XMLID_140_" class="st0" d="M21.7,110.4h92.5V63.8c-1.7,0.3-3.5,0.3-5.4-0.2c-1.4-0.4-2.9-1.1-4.2-2.1
		c-1.2-0.9-2.2-2.1-2.9-3.4c-1.1-1.7-1.7-3.6-1.9-5.7c-0.2-2.2,0.2-4.4,1.2-6.5c0.4-0.8,1-1.7,1.6-2.5c0.6-0.8,1.4-1.6,2.1-2.2l0,0
		c0.1-0.1,0.3-0.2,0.4-0.3l51.7-34.3c2.2-1.5,5.3-1.7,7.7-0.1l10.6,7c1.3-1.5,3.2-2.5,5.3-2.5h15.7c3.8,0,6.9,3.1,6.9,6.9v14
		l11.6,7.7c-0.2-0.2-0.4-0.6-0.6-1.3c0,0-0.3-1.5,1.4-1.5c0,0,0.6,0,0.9,0.5c0,0-0.4-1.9,1-3.3c0,0-1.4-2,0.7-1.7
		c0,0,0.2-0.7,1.2-0.8c0,0,2.1-0.9,2.3-3c0,0,0.4-4.5,6.1-4.4c0,0,4.2,0.2,4.5,2.1c0.2,0.7,0,1.3-0.4,1.9c0,0-0.1,1.7,1.2,2
		c0,0,0.9,0.1,0,0.8c0,0-0.5,0.5-0.1,0.8c0,0,0.3,0.4-0.1,0.6c0,0,0.3,0.3-0.1,0.4c0,0-0.3,0.2-0.2,0.7c0,0,0.5,1.2-1.8,0.7
		c0,0-1-0.4-1.3,0.3c0,0-2.1,4.4,4.9,8.1c0,0,1.7,0.8,1,2.3c0,0-0.6,1.7-2.7,2.8c0,0-0.7,0.3-0.6,2.3c0.1,2-0.2,3.4-0.3,4.1
		c-0.1,0.7-0.4,1,0,1.4c0.4,0.4,4.1,3.8,6,4.7c1.8,0.9,2.5,0.6,3.6,1.9c1,1.4,3,1.9,1.2,1.6c0,0,0.1,0.4,0.7,1.1
		c0.6,0.8,0.7,1.2,1.1,2.4l10.1,32c0,0,0.5-0.1,0.8,0.7l1.8,6.3c0,0,0.3,0.5,0,0.9l0.4,1.6h4.3c0,0,0.9,0.1,1.1,1.2h53.4
		c8.8,0,16.1,7.2,16.1,16.1v21.5c0,8.9-7.2,16.1-16.1,16.1H21.7c-8.9,0-16.1-7.2-16.1-16.1v-21.5C5.6,117.6,12.8,110.4,21.7,110.4
		 M207.5,110.4h18.7c0-0.6-0.2-1.4-0.5-1.9c0,0-1.2-1.4,0.6-2.6c0,0,0.9-0.7-0.1-3.3c0,0-1.1-2.6-2-4.1c0,0-1.6-2-1.6-4.2
		c0,0-4.1,4.5-5.8,6c0,0-0.8,0.4-0.5,1.8c0,0,0.5,1.3-0.7,1.5c0,0-1.9-3.1-2.5-5.6c0,0,2-1,2.2-2.1c0,0,0.4-2.1,2.6-1.2
		c0,0,1,0.4,1.8-0.9l2-3.2c0,0-0.8-3.2,0.9-6.7c0,0,0.6-1.7,0.2-3.8c0,0-1.6-9.1-1.1-15.1c0,0-7.7,3.4-4.3,15.4c0,0,1.9,4.8-3.2,7.3
		c0,0-1.4,0.7-3.6,1.8c0,0-2.6,0.9-3.2,3.3v2.7l0.5,3.6c0,0,0.2,1.8-0.5,3v1.8c0.1,0.5,0.2,1.2,0,1.9V110.4z M230.4,110.4H250
		c0.1-0.5,0.5-1.3,2.3-1.3l3.5,0.1l-0.2-1.1c0,0-0.7,0.3-1-1.1l-1.8-5.7c0,0-0.5-0.9,0.2-1.5l-8.9-27.1c0,0-0.4-1.7-3-3.5l-8.2-5.8
		l-0.9-0.5c0,0-0.4,1.6,1,2.8c0,0-0.5,0.8-2,1l4.5,12.5c0,0,1.5,2.8-1.5,4.6c0,0-4.1,2.7-7.8,6.6c0,0,0.7,6.6,3,14.9
		c0,0,1,2.5,1,4.8C230.3,109.8,230.3,110.1,230.4,110.4 M207.5,90.3c0.5-0.6,1.2-1.2,2.2-1.5c0,0,3-1.3,5.2-2.7c0,0,3.1-1.9,1.7-5.8
		c0,0-4-10,4.1-16.4c0,0-1.4-0.8-2-1.8c0,0,1.8-0.2,2.3-2.5c0,0,0-2.9,3.9-5.4c0,0,3-2.3-0.2-10.1c0,0-0.4,0.2-1.1,0.1
		c0,0,0.9,0.6,0,1.7c0,0-1.1,1-1.9-0.2c0,0,0.2,1.2-0.5,1.8c0.6,1.6,0.7,3.3,0.6,4.9l0,0c-0.2,1.9-0.8,3.7-1.8,5.4l-0.1,0.1
		c-0.7,1.4-1.7,2.6-2.9,3.6c-1.3,1-2.8,1.7-4.2,2.1c-1.8,0.5-3.6,0.5-5.3,0.2V90.3z M217.2,41.7c-0.1-0.6-0.2-1.3-0.5-2.2
		c0,0-0.8,1-1.6,0.7l1.3,0.8l0,0c0.2,0.1,0.3,0.2,0.4,0.3C216.9,41.5,217.1,41.6,217.2,41.7"/>
	<path id="XMLID_133_" class="st0" d="M316.2,169.6H21.7C9.7,169.6,0,159.9,0,147.9v-21.5c0-12,9.7-21.7,21.7-21.7h86.9V69.3
		c-0.4-0.1-0.8-0.2-1.2-0.3c-2.2-0.6-4.4-1.7-6.2-3.1c-1.8-1.4-3.3-3.1-4.3-5.1c-1.5-2.5-2.4-5.1-2.6-7.9c-0.3-3.3,0.3-6.5,1.8-9.5
		c0.6-1.1,1.3-2.3,2.2-3.5c0.9-1.2,2-2.3,3.1-3.1c0.1-0.1,0.2-0.2,0.4-0.3c0.1-0.1,0.3-0.2,0.4-0.3l51.7-34.2c2.1-1.4,4.5-2.2,7-2.2
		c2.4,0,4.8,0.7,6.9,2.1l7.4,4.9c1.7-0.8,3.5-1.2,5.4-1.2h15.7c6.9,0,12.5,5.6,12.5,12.5v11.1l3.1,2c0.1-0.3,0.2-0.6,0.4-0.9
		c0.8-1.5,2.1-2.6,3.7-3c0.2-0.1,0.4-0.2,0.6-0.3c0.9-3.7,4.3-8.1,11.2-8.1l0.3,0c0,0,0.1,0,0.1,0c5.3,0.2,9,2.7,9.8,6.5
		c0.1,0.6,0.2,1.2,0.2,1.9c0.4,0.6,0.8,1.2,1,1.9c0.2,0.6,0.5,2.1-0.2,3.7c0,0.3-0.1,0.5-0.1,0.8c0,0.2-0.1,0.4-0.2,0.6
		c-0.1,0.2-0.1,0.4-0.2,0.7c-0.1,0.9-0.5,1.8-1,2.6c-0.1,0.1-0.2,0.2-0.3,0.4c0,0,0,0,0,0c3.1,1.5,5.3,5.4,3.7,9.4
		c-0.5,1.2-1.4,2.7-2.9,4c0,0.8-0.1,1.6-0.1,2.2c1.6,1.3,2.4,1.9,2.7,2c0.3,0.1,0.5,0.2,0.8,0.3c1.1,0.4,2.9,0.9,4.6,3.1
		c0.1,0.1,0.2,0.2,0.3,0.2c2.2,1.5,2.8,3.3,2.9,4.7c0.2,0.5,0.4,1,0.6,1.5l0.2,0.5c0,0,0,0.1,0,0.1l9.6,30.3c0.6,0.7,1,1.5,1.3,2.4
		c0,0.1,0,0.1,0.1,0.2l1.3,4.8c0.2,0,0.3,0,0.5,0c1,0.1,2,0.5,2.9,1.1h50.9c11.9,0,21.7,9.7,21.7,21.7v21.5
		C337.9,159.9,328.2,169.6,316.2,169.6 M21.7,115.9c-5.8,0-10.5,4.7-10.5,10.5v21.5c0,5.8,4.7,10.5,10.5,10.5h294.6
		c5.8,0,10.5-4.7,10.5-10.5v-21.5c0-5.8-4.7-10.5-10.5-10.5h-53.4c-1.3,0-2.5-0.4-3.4-1.2h-2c-0.4,0-0.8,0-1.2-0.1
		c-0.2,0-0.4,0-0.6,0l-2.1,0c-1,0.8-2.2,1.3-3.6,1.3h-19.7c-0.7,0-1.4-0.1-2.1-0.4c-0.7,0.3-1.4,0.4-2.1,0.4h-18.7
		c-3.1,0-5.6-2.5-5.6-5.6v-4.6c0-0.3,0-0.6,0.1-1c-0.1-0.3-0.1-0.6-0.1-1v-1.8c0-0.8,0.2-1.6,0.5-2.3c0,0,0-0.1,0-0.1l-0.5-3.4
		c0-0.2,0-0.5,0-0.7v-2.7c0-0.4,0-0.8,0.1-1.2c-0.1-0.4-0.1-0.8-0.1-1.2V63.8c0-1.7,0.7-3.2,2-4.3c1.3-1.1,3-1.5,4.6-1.2
		c1,0.2,1.9,0.2,2.8-0.1c0.7-0.2,1.6-0.6,2.2-1.1c0.6-0.5,1.1-1,1.4-1.6c0,0,0-0.1,0.1-0.1l0.1-0.1c0-0.1,0.1-0.2,0.2-0.3
		c0.6-1,0.9-2,1-3.1c0,0,0-0.1,0-0.1c0.1-0.9,0-1.7-0.3-2.5c-0.3-0.8-0.3-1.6-0.3-2.3c-0.8-0.2-1.5-0.6-2.1-1.1
		c-0.1,0-0.1-0.1-0.2-0.1c-0.1-0.1-0.2-0.2-0.4-0.3l-1-0.7c-0.1,0-0.1-0.1-0.2-0.1c-0.1,0-0.1-0.1-0.2-0.1L200,36.9
		c-1.6-1-2.5-2.8-2.5-4.6v-14c0-0.7-0.6-1.3-1.3-1.3h-15.7c-0.5,0-0.9,0.3-1,0.5c-1.8,2.2-5,2.6-7.3,1.1l-10.6-7
		c-0.4-0.3-1-0.3-1.5,0c0,0-0.1,0-0.1,0.1l-51.7,34.3c-0.1,0.1-0.2,0.1-0.2,0.2c-0.3,0.3-0.7,0.7-1,1.1c-0.4,0.5-0.8,1-1,1.5
		c-0.6,1.1-0.8,2.3-0.7,3.5c0.1,1.1,0.5,2.2,1.1,3.3c0.1,0.1,0.2,0.3,0.2,0.4c0.3,0.6,0.7,1.1,1.3,1.6c0.6,0.5,1.4,0.9,2.2,1.1
		c0.9,0.3,1.9,0.3,2.9,0.1c1.6-0.3,3.3,0.1,4.6,1.2c1.3,1.1,2,2.6,2,4.3v46.5c0,3.1-2.5,5.6-5.6,5.6H21.7z M235.1,104.8h12.5
		c0.1-0.1,0.3-0.2,0.4-0.3l-0.4-1.4c-0.5-1.1-0.6-2.3-0.5-3.5l-5.7-17.4c-0.4,2.3-1.8,4.5-4.2,6.1c-0.3,0.2-2.5,1.7-4.9,4
		c0.4,2.5,1.1,6.5,2.4,11.1C234.7,103.6,234.9,104.1,235.1,104.8 M227.7,73.6c0.3,2.3,0.6,4.4,0.8,5.5c0.1,0.5,0.2,1,0.2,1.5
		c0.5-0.4,0.9-0.7,1.2-0.9L227.7,73.6z M226.3,61.6c0.1,0.1,0.1,0.2,0.2,0.3c0-0.1,0.1-0.3,0.1-0.4c0.2-0.8,0.5-1.5,1-2.1
		c0,0,0,0,0,0c-0.7,0.5-0.9,0.9-1,1c0,0.2-0.1,0.4-0.1,0.6C226.4,61.2,226.4,61.4,226.3,61.6 M222,37.7C222,37.7,222,37.7,222,37.7
		c0.1,0.4,0.3,0.8,0.4,1.2c0.5-0.1,1.1-0.2,1.6-0.2c-0.2-1.1-0.3-2.1-0.2-3c-0.4,0.3-0.8,0.6-1.1,0.8
		C222.4,36.9,222.2,37.3,222,37.7L222,37.7z"/>
	<path id="XMLID_130_" class="st1" d="M200.6,122.3H121c-4.6,0-8.3-3.7-8.3-8.3V65.4c-1.5,0.1-2.9,0-4.4-0.4
		c-1.7-0.4-3.3-1.3-4.7-2.3c-1.4-1.1-2.5-2.4-3.2-3.8c-1.2-2-1.9-4-2.1-6.2c-0.2-2.5,0.2-5,1.4-7.2c0.4-0.9,1.1-1.9,1.8-2.7
		c0.7-0.9,1.6-1.8,2.4-2.4c0.1,0,0.1-0.1,0.2-0.1c0.1-0.1,0.2-0.2,0.4-0.3l51.7-34.2c2.7-1.8,6.5-1.9,9.2-0.1L175,12
		c1.5-1.3,3.4-2.1,5.5-2.1h15.7c4.6,0,8.3,3.7,8.3,8.3v13.3l12.7,8.4c0.1,0,0.1,0.1,0.2,0.1c0.1,0.1,0.2,0.2,0.4,0.3
		c0.8,0.6,1.7,1.5,2.4,2.4c0.7,0.9,1.3,1.9,1.8,2.7c1.1,2.3,1.6,4.7,1.4,7.2c0,0,0,0.1,0,0.1c-0.2,2-0.9,4-2,5.8l0,0.1
		c-0.7,1.5-1.9,2.9-3.3,4c-1.4,1.1-3,1.9-4.7,2.3c-1.4,0.4-2.8,0.5-4.3,0.4V114C208.9,118.6,205.2,122.3,200.6,122.3 M114.1,62.4
		c0.3,0,0.6,0.1,0.9,0.3c0.3,0.3,0.5,0.7,0.5,1.1V114c0,3,2.5,5.5,5.5,5.5h79.6c3,0,5.5-2.5,5.5-5.5V63.8c0-0.4,0.2-0.8,0.5-1.1
		c0.3-0.3,0.7-0.4,1.1-0.3c1.6,0.3,3.2,0.3,4.7-0.2c1.3-0.3,2.6-1,3.7-1.8c1.1-0.9,2-1.9,2.6-3.1l0.1-0.2c0.9-1.6,1.5-3.2,1.6-4.8
		c0,0,0-0.1,0-0.1c0.2-2-0.2-3.9-1.1-5.7c-0.3-0.7-0.9-1.5-1.4-2.2c-0.6-0.8-1.3-1.4-1.9-1.9c-0.1-0.1-0.2-0.2-0.4-0.2
		c0,0-0.1-0.1-0.1-0.1l-13.1-8.7c-0.4-0.3-0.6-0.7-0.6-1.2v-14c0-3-2.5-5.5-5.5-5.5h-15.7c-1.6,0-3.2,0.7-4.2,2
		c-0.5,0.5-1.2,0.7-1.8,0.3l-10.6-7c-1.8-1.2-4.4-1.2-6.2,0.1l-51.8,34.3c-0.1,0.1-0.2,0.2-0.3,0.2c0,0-0.1,0.1-0.1,0.1
		c-0.6,0.5-1.2,1.1-1.8,1.8c-0.6,0.7-1.1,1.5-1.4,2.2c-0.9,1.8-1.3,3.8-1.1,5.8c0.2,1.8,0.7,3.5,1.7,5.1c0,0,0,0.1,0.1,0.1
		c0.6,1.1,1.4,2.1,2.5,3c1.1,0.8,2.4,1.5,3.7,1.8c1.6,0.4,3.2,0.5,4.8,0.1C114,62.5,114,62.4,114.1,62.4"/>
	<path id="XMLID_127_" class="st2" d="M109,46.8c-0.7,0.5-1.4,1.5-1.8,2.3c-1,2-0.7,3.9,0.5,5.7l0,0.1l0,0.1
		c0.4,1.1,1.7,1.9,2.7,2.1c2,0.5,4-0.3,5.6-1.5l44.7-29.6l44.7,29.7c1.6,1.2,3.6,2,5.6,1.5c1.1-0.3,2.3-1.1,2.7-2.1l0-0.1l0-0.1
		c1.2-1.8,1.5-3.7,0.5-5.7c-0.4-0.8-1.1-1.7-1.8-2.3l-16.4-10.9V18.2h-15.7v7.3l-19.7-13L109,46.8z M121,104.7h26.6V75.6
		c0-1.9,1.6-3.5,3.5-3.5h19.2c1.9,0,3.5,1.6,3.5,3.5v29.1h26.6V57.4l-39.4-26.1L121,57.4V104.7z"/>
	<path id="XMLID_53_" class="st3" d="M231.9,28.5c0,0-0.1,1.7,1.2,2c0,0,0.9,0.1,0,0.8c0,0-0.5,0.5-0.1,0.8c0,0,0.3,0.4-0.1,0.6
		c0,0,0.3,0.3-0.1,0.4c0,0-0.3,0.2-0.2,0.7c0,0,0.5,1.2-1.8,0.7c0,0-1-0.4-1.3,0.3c0,0-2.1,4.4,4.9,8.1c0,0,1.7,0.8,1,2.3
		c0,0-0.6,1.7-2.7,2.8c0,0-0.7,0.3-0.6,2.3c0.1,2-0.2,3.4-0.3,4.1c-0.1,0.7-0.4,1,0,1.4c0.4,0.4,4.1,3.8,6,4.7
		c1.8,0.9,2.5,0.6,3.6,1.9c1,1.4,3,1.9,1.2,1.6c0,0,0.1,0.4,0.7,1.1c0.6,0.8,0.7,1.2,1.1,2.4l10.1,32c0,0,0.5-0.1,0.8,0.7l1.8,6.3
		c0,0,0.3,0.5,0,0.9l0.4,1.6h4.3c0,0,1.2,0.2,1.2,1.7c0,0,0,1.4-1.7,1.4h-9.7c0,0-1.6,0.1-1.6-1.6c0,0-0.2-1.6,2.3-1.6l3.5,0.1
		l-0.2-1.1c0,0-0.7,0.3-1-1.1l-1.8-5.7c0,0-0.5-0.9,0.2-1.5l-8.9-27.1c0,0-0.4-1.7-3-3.5l-8.2-5.8l-0.9-0.5c0,0-0.4,1.6,1,2.8
		c0,0-0.5,0.8-2,1l4.5,12.5c0,0,1.5,2.8-1.5,4.6c0,0-4,2.7-7.8,6.6c0,0,0.7,6.6,3,14.9c0,0,1,2.5,1,4.8c0,0-0.2,1,1.1,1.6
		c0,0,1.4,0.1,1.2,1.7c0,0-3.5-0.3-6.4-1.3c0,0,0.3-2.1-0.5-3.3c0,0-1.2-1.4,0.6-2.6c0,0,0.9-0.7-0.1-3.3c0,0-1.1-2.6-2-4.1
		c0,0-1.6-2-1.6-4.2c0,0-4.1,4.5-5.8,6c0,0-0.8,0.4-0.5,1.8c0,0,0.5,1.3-0.7,1.5c0,0-1.9-3.1-2.5-5.6c0,0,2-1,2.2-2.1
		c0,0,0.4-2.1,2.6-1.2c0,0,1,0.4,1.8-0.9l2-3.2c0,0-0.8-3.2,0.9-6.7c0,0,0.6-1.7,0.2-3.8c0,0-1.6-9.1-1.1-15.1c0,0-7.7,3.4-4.3,15.4
		c0,0,1.9,4.8-3.2,7.3c0,0-1.4,0.7-3.6,1.8c0,0-4.1,1.5-3.3,5.4l0.6,4.2c0,0,0.3,2.6-0.9,3.5c0,0,2.2,3.6-2.2,6.9
		c0,0-3.2,2-13.6,1.4c0,0-7.3-0.1-6.3-7.1c0,0,0.1-6.4,9.1-5.8c0,0,9.9,0.4,12.3,3.4c0,0,0.8-0.7,0.3-4c0,0-2.1-6.9,3-8.6
		c0,0,3-1.3,5.2-2.7c0,0,3.1-1.9,1.7-5.8c0,0-4-10,4.1-16.4c0,0-1.4-0.8-2-1.8c0,0,1.8-0.2,2.3-2.5c0,0,0-2.9,3.9-5.4
		c0,0,3-2.3-0.2-10.1c0,0-0.4,0.2-1.1,0.1c0,0,0.9,0.6,0,1.7c0,0-1.1,1-1.9-0.2c0,0,0.5,2.5-2.3,2.1c0,0-1.6-0.3-1.4-2.3
		c0,0-1.3,0.7-1.6-0.4c0,0-2.4,0.5-2.2-1.8c0,0,0.3-1.1,1.5-0.9c0,0,0.7-0.1,1,0.8l0.5-0.3c0,0,0.3-1.4-0.5-3.6c0,0-1.8,2.2-2.6-0.8
		c0,0-0.3-1.5,1.4-1.5c0,0,0.6,0,0.9,0.5c0,0-0.4-1.9,1-3.3c0,0-1.4-2,0.7-1.7c0,0,0.2-0.7,1.2-0.8c0,0,2.1-0.9,2.3-3
		c0,0,0.4-4.5,6.1-4.4c0,0,4.2,0.2,4.5,2.1C232.5,27.3,232.3,27.9,231.9,28.5"/>
	<path id="XMLID_52_" class="st4" d="M21.7,110.4h294.6c8.8,0,16.1,7.2,16.1,16.1v21.5c0,8.9-7.2,16.1-16.1,16.1H21.7
		c-8.9,0-16.1-7.2-16.1-16.1v-21.5C5.6,117.6,12.8,110.4,21.7,110.4"/>
	<path id="XMLID_98_" class="st5" d="M76.2,190.1h-2.4v-16h2.4V190.1z M80.4,177.6c-0.8,0-1.4-0.4-1.4-1.4c0-0.9,0.7-1.4,1.4-1.4
		c0.8,0,1.4,0.5,1.4,1.4C81.9,177.1,81.2,177.6,80.4,177.6 M79.2,179.6h2.4v10.5h-2.4V179.6z M84.6,190.1v-10.5h2.1v1.3
		c0.6-0.6,1.8-1.6,3.5-1.6c1.6,0,2.7,0.7,3.3,1.7c0.9-0.9,2.2-1.7,3.7-1.7c2.8,0,4,2.1,4,4.2v6.6h-2.4v-6.5c0-1.4-0.8-2.2-2.1-2.2
		c-1.2,0-2.1,0.8-2.6,1.4c0,0.2,0,0.5,0,0.7v6.6h-2.4v-6.5c0-1.4-0.8-2.2-2.1-2.2c-1.3,0-2.2,0.9-2.8,1.6v7.1H84.6z M110.2,179.3
		c3.2,0,5.2,2.5,5.2,5.6c0,3-2.1,5.6-5.2,5.6c-1.8,0-3.1-0.8-3.8-1.6v6.2H104v-15.4h2.1v1.6C106.9,180.2,108.2,179.3,110.2,179.3
		 M109.7,181.4c-1.6,0-2.9,1.1-3.4,2.2v2.6c0.5,1.2,1.7,2.2,3.4,2.2c1.9,0,3.3-1.4,3.3-3.5C113,182.8,111.6,181.4,109.7,181.4
		 M122.4,179.3c4.2,0,5.6,3.4,5,6.4h-7.9c0.3,1.9,2.1,2.7,4,2.7c1.3,0,2.4-0.3,3.3-0.7v2c-1,0.5-2.3,0.7-3.8,0.7c-3.2,0-6-1.8-6-5.6
		C117,181,119.9,179.3,122.4,179.3 M122.5,181.3c-1.6,0-3,0.9-3.1,2.7h5.8C125.3,183.1,124.8,181.3,122.5,181.3 M137.5,179.6v1.8
		l-5.6,6.8h6v2H129v-1.8l5.6-6.8h-5.3v-2H137.5z M149.9,188.5c0.2,0,0.5-0.1,0.7-0.1v1.7c-0.4,0.2-1,0.3-1.5,0.3
		c-1,0-1.7-0.4-2.1-1.2c-1,0.8-2.3,1.4-4,1.4c-1.9,0-3.7-1.1-3.7-3.2c0-2.7,2.5-3.5,4.7-3.5c0.9,0,1.9,0.1,2.7,0.3v-0.4
		c0-1.3-1-2.2-2.8-2.2c-1.6,0-2.9,0.4-3.8,0.8V180c0.8-0.3,2.4-0.7,4-0.7c3,0,4.9,1.4,4.9,4.6v3.8
		C149.1,188.3,149.5,188.5,149.9,188.5 M141.7,187c0,1,0.9,1.6,2,1.6c1.1,0,2.2-0.4,3.1-1.3v-1.8c-0.6-0.1-1.5-0.3-2.3-0.3
		C143.1,185.3,141.7,185.7,141.7,187 M161.7,179.3c4.2,0,5.6,3.4,5,6.4h-7.9c0.3,1.9,2.1,2.7,4,2.7c1.3,0,2.4-0.3,3.3-0.7v2
		c-1,0.5-2.3,0.7-3.8,0.7c-3.2,0-6-1.8-6-5.6C156.3,181,159.3,179.3,161.7,179.3 M161.8,181.3c-1.6,0-3,0.9-3.1,2.7h5.8
		C164.7,183.1,164.1,181.3,161.8,181.3 M179.4,179.3c1.2,0,2.3,0.3,3.3,0.8v2.2c-0.8-0.6-1.8-0.9-2.9-0.9c-1.9,0-3.8,1-3.8,3.5
		c0,2.4,1.8,3.5,3.7,3.5c1.1,0,2.2-0.3,3.1-0.8v2.2c-1,0.5-2.2,0.7-3.5,0.7c-2.8,0-5.7-1.7-5.7-5.5
		C173.6,181,176.6,179.3,179.4,179.3 M195,179.6v10.5H193v-1.5c-0.8,0.9-2.1,1.7-3.7,1.7c-2.8,0-4.4-1.8-4.4-4.3v-6.5h2.4v6.2
		c0,1.7,0.9,2.5,2.5,2.5c1.3,0,2.4-0.9,2.9-1.8v-7H195z M199.2,177.6c-0.8,0-1.4-0.4-1.4-1.4c0-0.9,0.7-1.4,1.4-1.4
		c0.8,0,1.4,0.5,1.4,1.4C200.6,177.1,200,177.6,199.2,177.6 M198,179.6h2.4v10.5H198V179.6z M214.1,174.8v15.4H212v-1.7
		c-0.8,1-2.1,2-4,2c-3.2,0-5.2-2.5-5.2-5.6c0-3,2-5.6,5.2-5.6c1.8,0,3.1,0.8,3.8,1.6v-6.2H214.1z M208.4,181.4
		c-1.9,0-3.3,1.4-3.3,3.5c0,2.1,1.4,3.5,3.3,3.5c1.7,0,2.9-1.1,3.4-2.2v-2.6C211.2,182.4,210,181.4,208.4,181.4 M226.8,188.5
		c0.2,0,0.5-0.1,0.7-0.1v1.7c-0.4,0.2-1,0.3-1.5,0.3c-1,0-1.7-0.4-2.1-1.2c-1,0.8-2.3,1.4-4,1.4c-1.9,0-3.7-1.1-3.7-3.2
		c0-2.7,2.5-3.5,4.7-3.5c0.9,0,1.9,0.1,2.7,0.3v-0.4c0-1.3-1-2.2-2.8-2.2c-1.6,0-2.9,0.4-3.8,0.8V180c0.8-0.3,2.4-0.7,4-0.7
		c3,0,4.9,1.4,4.9,4.6v3.8C226,188.3,226.4,188.5,226.8,188.5 M218.6,187c0,1,0.9,1.6,2,1.6c1.1,0,2.2-0.4,3.1-1.3v-1.8
		c-0.6-0.1-1.5-0.3-2.3-0.3C220,185.3,218.6,185.7,218.6,187 M239.8,174.8v15.4h-2.1v-1.7c-0.8,1-2.1,2-4,2c-3.2,0-5.2-2.5-5.2-5.6
		c0-3,2-5.6,5.2-5.6c1.8,0,3.1,0.8,3.8,1.6v-6.2H239.8z M234.1,181.4c-1.9,0-3.3,1.4-3.3,3.5c0,2.1,1.4,3.5,3.3,3.5
		c1.6,0,2.9-1.1,3.4-2.2v-2.6C237,182.4,235.8,181.4,234.1,181.4 M247.8,179.3c3,0,5.7,1.9,5.7,5.6s-2.7,5.6-5.7,5.6
		c-2.9,0-5.7-1.9-5.7-5.6S244.9,179.3,247.8,179.3 M247.8,181.5c-2,0-3.3,1.3-3.3,3.4c0,2.1,1.4,3.4,3.3,3.4c2,0,3.3-1.3,3.3-3.4
		C251.2,182.8,249.8,181.5,247.8,181.5 M259.5,179.3c1.5,0,2.8,0.4,3.8,0.9v2.1c-0.9-0.6-2.4-1-3.6-1c-0.9,0-2,0.3-2,1.1
		c0,2,6.3,1.1,6.3,4.9c0,2.3-2.2,3.1-4.5,3.1c-1.5,0-3.1-0.4-4.1-1v-2.1c1.1,0.7,2.7,1.1,4,1.1c1.3,0,2.3-0.2,2.3-1.1
		c0-2-6.4-1.1-6.4-4.9C255.3,180.1,257.4,179.3,259.5,179.3"/>
	<path id="XMLID_81_" class="st6" d="M142.5,145.2h2c1.3,0,2.3-0.3,2.9-0.8c0.7-0.6,1-1.4,1-2.5c0-1-0.3-1.8-1-2.3
		c-0.7-0.5-1.6-0.8-2.9-0.8h-2.1V145.2z M142.5,134.8h1.2c1.6,0,2.7-0.2,3.3-0.7c0.6-0.4,1-1.2,1-2.2c0-1-0.3-1.7-0.9-2.2
		c-0.6-0.4-1.7-0.6-3.3-0.6h-1.2V134.8z M137.4,149.2v-24.1h4.5c2.3,0,4,0.1,5.1,0.3c1.1,0.2,2,0.5,2.8,0.9c0.9,0.5,1.6,1.3,2.2,2.1
		c0.5,0.9,0.8,1.9,0.8,3c0,1.4-0.4,2.6-1.3,3.4c-0.8,0.9-2.1,1.4-3.8,1.7c1.9,0.3,3.4,0.9,4.4,1.9c1,1,1.5,2.3,1.5,3.9
		c0,1.2-0.3,2.3-0.9,3.3c-0.6,1-1.3,1.7-2.4,2.3c-0.9,0.5-1.9,0.8-3.1,1c-1.2,0.2-3.2,0.3-5.9,0.3h-0.5H137.4z M174.9,149.2H169
		l-6.3-11.3v11.3h-5.2v-24.1h7.4c2.9,0,5.1,0.6,6.6,1.7c1.5,1.1,2.2,2.8,2.2,5.1c0,1.7-0.5,3.1-1.5,4.3c-1,1.2-2.3,1.9-3.9,2.1
		L174.9,149.2z M162.6,135.4h0.8c2.1,0,3.5-0.2,4.1-0.7c0.7-0.5,1-1.3,1-2.4c0-1.2-0.4-2-1.1-2.5c-0.7-0.5-2.1-0.7-4-0.7h-0.8V135.4
		z M190.4,140l-2.7-7.8c-0.1-0.2-0.2-0.6-0.3-1.2c-0.1-0.6-0.2-1.3-0.4-2.1c-0.1,0.8-0.3,1.5-0.4,2.1s-0.2,1-0.3,1.2l-2.6,7.7H190.4
		z M175,149.2l9.2-24.1h5.9l9.3,24.1h-5.9l-2-5.1h-9.3l-1.7,5.1H175z M200.4,146.2l2.9-3.2c0.4,0.9,0.9,1.6,1.7,2.1
		c0.8,0.5,1.7,0.8,2.7,0.8c1.2,0,2.2-0.3,2.9-0.9c0.7-0.6,1-1.3,1-2.3c0-1.1-1.2-2.3-3.5-3.4c-0.8-0.4-1.4-0.7-1.8-0.9
		c-2.1-1.1-3.6-2.2-4.4-3.2c-0.8-1-1.2-2.3-1.2-3.7c0-2,0.8-3.6,2.4-4.9c1.6-1.3,3.6-1.9,6.1-1.9c1.5,0,2.7,0.3,3.8,0.8
		c1.1,0.5,2,1.3,2.8,2.4l-3,2.9c-0.4-0.7-0.8-1.2-1.4-1.6c-0.6-0.3-1.3-0.5-2.2-0.5c-1,0-1.8,0.2-2.5,0.8c-0.6,0.5-0.9,1.2-0.9,2
		c0,1.3,1.2,2.4,3.7,3.5c0.5,0.2,0.9,0.4,1.1,0.5c2,0.9,3.6,2,4.5,3.2c1,1.2,1.5,2.5,1.5,4c0,2.3-0.8,4.1-2.3,5.4
		c-1.5,1.3-3.6,2-6.2,2c-1.8,0-3.4-0.3-4.7-1C202,148.3,201,147.4,200.4,146.2 M220.9,125.1h5.2v24.1h-5.2V125.1z M231.5,149.2
		v-24.1h5.1v19.7h8.2v4.4H231.5z M248.1,149.2v-24.1h14.2v4.4h-9v5h9v4.4h-9v6h9v4.4H248.1z M267.5,125.1h5.2v24.1h-5.2V125.1z
		 M295.6,149.2h-5.9l-6.3-11.3v11.3h-5.1v-24.1h7.4c2.9,0,5.1,0.6,6.6,1.7c1.5,1.1,2.2,2.8,2.2,5.1c0,1.7-0.5,3.1-1.5,4.3
		c-1,1.2-2.3,1.9-3.9,2.1L295.6,149.2z M283.3,135.4h0.8c2.1,0,3.5-0.2,4.1-0.7c0.7-0.5,1-1.3,1-2.4c0-1.2-0.4-2-1.1-2.5
		c-0.7-0.5-2.1-0.7-4-0.7h-0.8V135.4z M311,140l-2.7-7.8c-0.1-0.2-0.2-0.6-0.3-1.2c-0.1-0.6-0.2-1.3-0.4-2.1
		c-0.1,0.8-0.3,1.5-0.4,2.1c-0.1,0.6-0.2,1-0.3,1.2l-2.6,7.7H311z M295.7,149.2l9.2-24.1h5.9l9.3,24.1h-5.9l-2-5.1h-9.3l-1.7,5.1
		H295.7z"/>
	<path id="XMLID_72_" class="st6" d="M17.9,149.1l3.7-24.1h5.4l4.6,14.2c0.1,0.3,0.2,0.7,0.3,1.3c0.1,0.6,0.2,1.2,0.3,2
		c0.1-0.8,0.2-1.4,0.3-2c0.1-0.6,0.2-1,0.3-1.3l4.7-14.2h5.3l3.7,24.1h-4.9l-1.8-14.5c-0.1-1.1-0.2-1.9-0.3-2.4
		c0-0.6-0.1-1.1-0.1-1.5c0-0.2,0-0.4,0-0.6c0-0.1,0-0.2,0-0.3c-0.2,0.9-0.3,1.8-0.5,2.4c-0.1,0.7-0.3,1.2-0.4,1.6l-5.1,15.4h-2.9
		l-5-15.4c0-0.1-0.1-0.5-0.3-1.2c-0.1-0.6-0.4-1.6-0.6-2.8v0.7c0,1.1-0.1,2.5-0.3,4.1l0,0.1l-1.7,14.5H17.9z M62.4,139.9l-2.7-7.8
		c-0.1-0.2-0.2-0.6-0.3-1.2c-0.1-0.6-0.2-1.2-0.4-2.1c-0.1,0.8-0.3,1.5-0.4,2.1c-0.1,0.6-0.2,1-0.3,1.2l-2.6,7.7H62.4z M47,149.1
		l9.2-24.1h5.9l9.3,24.1h-5.9l-2-5.1h-9.3l-1.7,5.1H47z M91.3,149.1h-5.9L79,137.9v11.3h-5.1V125h7.4c2.9,0,5.1,0.6,6.6,1.7
		c1.5,1.1,2.2,2.8,2.2,5.1c0,1.7-0.5,3.1-1.5,4.2c-1,1.2-2.3,1.9-3.9,2.1L91.3,149.1z M79,135.3h0.8c2.1,0,3.5-0.2,4.1-0.7
		c0.7-0.5,1-1.3,1-2.4c0-1.2-0.4-2-1.1-2.5c-0.7-0.5-2.1-0.8-4-0.8H79V135.3z M94.4,125h5.2v24.1h-5.2V125z M117.5,139.9l-2.7-7.8
		c-0.1-0.2-0.2-0.6-0.3-1.2c-0.1-0.6-0.3-1.2-0.4-2.1c-0.1,0.8-0.3,1.5-0.4,2.1c-0.1,0.6-0.2,1-0.3,1.2l-2.6,7.7H117.5z
		 M102.2,149.1l9.2-24.1h5.9l9.3,24.1h-5.9l-2-5.1h-9.3l-1.7,5.1H102.2z"/>
</g>
</svg>
