<svg xmlns="http://www.w3.org/2000/svg" xmlns:xlink="http://www.w3.org/1999/xlink" viewBox="0 0 145.9 44.8"><defs><style>.cls-1,.cls-4{fill:#0073bb;}.cls-2{font-size:32px;fill:#3b3b3b;font-family:Raleway-BoldItalic, Raleway;font-weight:700;font-style:italic;letter-spacing:-0.03em;}.cls-3{letter-spacing:-0.02em;}.cls-4{font-size:40px;font-family:MullerExtraBoldItalic;}.cls-5{fill:url(#linear-gradient);}.cls-6{fill:url(#linear-gradient-2);}</style><linearGradient id="linear-gradient" x1="120.21" y1="33.9" x2="131.53" y2="27.36" gradientUnits="userSpaceOnUse"><stop offset="0" stop-color="#0073bb"/><stop offset="0.49" stop-color="#0072b9"/><stop offset="0.67" stop-color="#006fb2"/><stop offset="0.79" stop-color="#0169a7"/><stop offset="0.89" stop-color="#026196"/><stop offset="0.98" stop-color="#035680"/><stop offset="1" stop-color="#03537a"/></linearGradient><linearGradient id="linear-gradient-2" x1="134.97" y1="26.59" x2="146.29" y2="20.05" gradientTransform="translate(280.93 41) rotate(180)" gradientUnits="userSpaceOnUse"><stop offset="0" stop-color="#0073bb"/><stop offset="0.62" stop-color="#0072b9"/><stop offset="0.85" stop-color="#006fb2"/><stop offset="1" stop-color="#0069a7"/></linearGradient></defs><title>Asset 6</title><g id="Layer_2" data-name="Layer 2"><g id="Layer_1-2" data-name="Layer 1"><polygon class="cls-1" points="0 23.8 12.94 25.32 15.44 21.3 21.97 30.11 26.86 15.21 33.05 39.9 36.79 24.61 53.95 23.8 35.95 22.93 33.61 31.63 27.73 2.7 20.99 25.21 15.34 18.25 12.51 23.8 0 23.8"/><text class="cls-2" transform="translate(55.95 33.2)">R<tspan class="cls-3" x="19.55" y="0">aio</tspan></text><text class="cls-4" transform="translate(122.34 34)">x</text><polygon class="cls-5" points="120.26 34 129.35 23.87 132.44 28.93 128.25 34 120.26 34"/><polygon class="cls-6" points="145.9 14.31 136.82 24.44 133.72 19.38 137.91 14.31 145.9 14.31"/></g></g></svg>